# xmcd CD database file generated by OrangeCD 6.0
#
# Track frame offsets:
#	150
#	57988
#	84943
#	117409
#	146319
#	169775
#	206115
#	237588
#	263889
#
# Disc length: 4030 seconds
#
# Revision: 0
# Processed by: cddbd v1.5.1PL2 Copyright (c) Steve Scherf et al.
# Submitted via: OrangeCD 6.0
#
DISCID=7e0fbc09
DTITLE=Eric Clapton - Blues [CD2)
DYEAR=1999
DGENRE=
TTITLE0=Stormy Monday
TTITLE1=Worried Life Blues
TTITLE2=Early In The Morning 
TTITLE3=Wonderful tonight
TTITLE4=Kind Hearted Woman
TTITLE5=Double Trouble
TTITLE6=Driftin' Blues
TTITLE7=Crossroads
TTITLE8=Further on up the road
EXTD=
EXTT0=
EXTT1=
EXTT2=
EXTT3=
EXTT4=
EXTT5=
EXTT6=
EXTT7=
EXTT8=
PLAYORDER=
